<svg width="217" height="37" viewBox="0 0 217 37" fill="none" xmlns="http://www.w3.org/2000/svg">
<path d="M21.1897 36.2226C20.302 34.8614 19.2783 33.4314 18.1189 31.9326C16.9585 30.4344 15.7385 28.9879 14.4591 27.5909C13.1799 26.1952 11.857 24.8677 10.4928 23.6076C9.12742 22.3481 7.77966 21.2579 6.44928 20.3391V36.2226H0V0.828613H6.44928V15.4355C7.57511 14.3123 8.75239 13.112 9.98061 11.8353C11.2091 10.5582 12.4286 9.26487 13.6402 7.95373C14.8508 6.64331 16.0027 5.37434 17.095 4.14875C18.187 2.92316 19.1761 1.81685 20.0639 0.828613H27.7926C26.6662 2.12312 25.4716 3.46776 24.2095 4.86348C22.9468 6.26041 21.6502 7.6648 20.3196 9.07715C18.9887 10.4905 17.6494 11.8951 16.3017 13.2908C14.9534 14.687 13.6315 16.0153 12.3354 17.2748C13.7684 18.3643 15.227 19.6325 16.7112 21.0791C18.1954 22.5271 19.6545 24.0761 21.0875 25.7268C22.5208 27.3791 23.8939 29.098 25.2076 30.8858C26.5209 32.6728 27.7237 34.4527 28.8162 36.2226H21.1897Z" fill="#EE5A28"/>
<path d="M39.7686 0.828369H33.3193V36.2224H39.7686V0.828369Z" fill="#EE5A28"/>
<path d="M56.8632 31.4217C59.1835 31.4217 60.8722 31.0308 61.9302 30.2474C62.9877 29.464 63.5171 28.3575 63.5171 26.9273C63.5171 26.0764 63.3379 25.3439 62.9795 24.7311C62.6216 24.1183 62.1096 23.5652 61.4443 23.0715C60.7785 22.5782 59.9679 22.1187 59.013 21.6924C58.0572 21.2671 56.9659 20.8497 55.7374 20.441C54.5092 19.9988 53.3227 19.5137 52.18 18.9855C51.0365 18.458 50.0307 17.8031 49.1601 17.0189C48.2903 16.2362 47.5907 15.3001 47.0618 14.2099C46.5325 13.1212 46.2683 11.81 46.2683 10.2774C46.2683 7.0778 47.377 4.56637 49.5951 2.74436C51.8132 0.923082 54.8325 0.0117188 58.6546 0.0117188C60.8722 0.0117188 62.8431 0.259199 64.5663 0.752472C66.2889 1.24623 67.6454 1.78264 68.6352 2.36121L66.6391 7.57083C65.4789 6.92429 64.208 6.43054 62.8264 6.08932C61.4443 5.74955 60.0188 5.57894 58.5527 5.57894C56.8123 5.57894 55.4556 5.93654 54.4836 6.65127C53.5111 7.36672 53.0245 8.37086 53.0245 9.66465C53.0245 10.4481 53.1863 11.1201 53.5111 11.6821C53.8349 12.244 54.2955 12.7467 54.8931 13.1884C55.4894 13.6316 56.189 14.04 56.9915 14.4142C57.7925 14.7897 58.6713 15.1473 59.6274 15.4873C61.299 16.1001 62.7919 16.7218 64.1058 17.3512C65.419 17.9821 66.528 18.7303 67.4326 19.5986C68.3363 20.4665 69.0277 21.488 69.5053 22.6628C69.983 23.8375 70.2221 25.2593 70.2221 26.9273C70.2221 30.1284 69.0876 32.6054 66.8183 34.3587C64.5492 36.1127 61.2306 36.9892 56.8632 36.9892C55.3957 36.9892 54.0564 36.8947 52.8451 36.7077C51.634 36.5207 50.5589 36.2911 49.6211 36.0185C48.6817 35.7462 47.8718 35.4655 47.19 35.1758C46.5069 34.8869 45.9616 34.6228 45.5522 34.3842L47.4458 29.1235C48.3666 29.6346 49.6122 30.145 51.1819 30.6561C52.7509 31.1665 54.6449 31.4217 56.8632 31.4217Z" fill="#EE5A28"/>
<path d="M84.5014 31.4217C86.8217 31.4217 88.5107 31.0308 89.5686 30.2474C90.6261 29.464 91.1555 28.3575 91.1555 26.9273C91.1555 26.0764 90.9763 25.3439 90.6177 24.7311C90.26 24.1183 89.7478 23.5652 89.0825 23.0715C88.4167 22.5782 87.606 22.1187 86.6514 21.6924C85.6954 21.2671 84.6041 20.8497 83.3758 20.441C82.1474 19.9988 80.9612 19.5137 79.8182 18.9855C78.6747 18.458 77.6689 17.8031 76.7983 17.0189C75.9285 16.2362 75.2289 15.3001 74.7 14.2099C74.1706 13.1212 73.9067 11.81 73.9067 10.2774C73.9067 7.0778 75.0151 4.56637 77.2332 2.74436C79.4516 0.923082 82.4707 0.0117188 86.293 0.0117188C88.5107 0.0117188 90.4812 0.259199 92.2045 0.752472C93.9271 1.24623 95.2838 1.78264 96.2737 2.36121L94.2772 7.57083C93.1171 6.92429 91.8462 6.43054 90.4646 6.08932C89.0825 5.74955 87.6572 5.57894 86.1909 5.57894C84.4505 5.57894 83.0938 5.93654 82.1218 6.65127C81.1493 7.36672 80.6627 8.37086 80.6627 9.66465C80.6627 10.4481 80.8247 11.1201 81.1493 11.6821C81.4731 12.244 81.9339 12.7467 82.5313 13.1884C83.1278 13.6316 83.8272 14.04 84.6297 14.4142C85.4307 14.7897 86.3095 15.1473 87.2655 15.4873C88.9371 16.1001 90.4303 16.7218 91.744 17.3512C93.0572 17.9821 94.1664 18.7303 95.0708 19.5986C95.9745 20.4665 96.6658 21.488 97.1435 22.6628C97.6212 23.8375 97.8603 25.2593 97.8603 26.9273C97.8603 30.1284 96.7257 32.6054 94.4567 34.3587C92.1874 36.1127 88.869 36.9892 84.5014 36.9892C83.0339 36.9892 81.6946 36.8947 80.4835 36.7077C79.2724 36.5207 78.197 36.2911 77.2596 36.0185C76.3202 35.7462 75.5102 35.4655 74.8282 35.1758C74.1453 34.8869 73.5998 34.6228 73.1904 34.3842L75.084 29.1235C76.005 29.6346 77.2506 30.145 78.8201 30.6561C80.3891 31.1665 82.2833 31.4217 84.5014 31.4217Z" fill="#EE5A28"/>
<path d="M126.42 0.828613V3.84199H115.058V36.2226H111.577V3.84199H100.215V0.828613H126.42Z" fill="#2B388D"/>
<path d="M131.948 36.2226V0.828613H152.42V3.84199H135.428V16.1509H150.578V19.1135H135.428V33.2092H153.751V36.2226H131.948Z" fill="#2B388D"/>
<path d="M174.224 36.9891C171.938 36.9891 169.814 36.5807 167.852 35.7635C165.89 34.9461 164.184 33.755 162.734 32.1879C161.283 30.6226 160.14 28.6897 159.305 26.3916C158.468 24.0929 158.051 21.4624 158.051 18.5006C158.051 15.5381 158.502 12.9079 159.407 10.6099C160.31 8.31104 161.513 6.37964 163.015 4.81283C164.517 3.24722 166.256 2.06332 168.236 1.26352C170.214 0.46349 172.279 0.0632324 174.429 0.0632324C175.76 0.0632324 176.97 0.148537 178.063 0.318424C179.155 0.489033 180.11 0.701572 180.929 0.956764C181.748 1.21195 182.447 1.46787 183.028 1.72306C183.608 1.97825 184.052 2.2079 184.359 2.41225L183.233 5.42562C182.38 4.91524 181.295 4.41305 179.983 3.9193C178.668 3.42602 177.039 3.17854 175.094 3.17854C172.876 3.17854 170.94 3.55326 169.285 4.3022C167.63 5.05139 166.24 6.10734 165.113 7.4686C163.988 8.83107 163.143 10.4482 162.58 12.3204C162.017 14.1935 161.736 16.2707 161.736 18.5517C161.736 20.9005 162.017 23.0206 162.58 24.91C163.143 26.8002 163.97 28.4085 165.062 29.7365C166.155 31.0648 167.494 32.0863 169.08 32.801C170.667 33.5162 172.485 33.8733 174.532 33.8733C176.784 33.8733 178.668 33.6613 180.187 33.235C181.705 32.8099 182.857 32.3757 183.642 31.9328L184.614 34.8948C184.375 35.0659 183.966 35.2613 183.386 35.4821C182.806 35.7042 182.072 35.9339 181.185 36.172C180.298 36.4093 179.274 36.606 178.114 36.7592C176.954 36.912 175.657 36.9891 174.224 36.9891Z" fill="#2B388D"/>
<path d="M213.378 0.828613H216.86V36.2226H213.378V19.2152H194.134V36.2226H190.654V0.828613H194.134V16.2018H213.378V0.828613Z" fill="#2B388D"/>
</svg>
