<svg width="49" height="47" viewBox="0 0 49 47" fill="none" xmlns="http://www.w3.org/2000/svg">
<path d="M40.1641 24.6274L40.0372 24.7438L39.9573 24.8169L34.3921 24.8142L34.4832 24.7288L34.5866 24.6318L34.5932 24.6274H40.1641Z" fill="#2B388D"/>
<path d="M29.042 29.8488L26.0988 27.3071L24.6851 28.605V34.6447L29.0406 30.5936L29.042 29.8488Z" fill="#2B388D"/>
<path d="M34.5932 24.6255L34.565 24.6528L34.299 24.9021L29.2479 29.6548L29.042 29.8486L26.0991 27.3071L29.0194 24.6255H34.5932Z" fill="#2B388D"/>
<path d="M40.166 24.6257L40.164 24.6275L40.0372 24.7438L39.9572 24.8169L29.0862 34.7609H29.042V29.8488L34.3921 24.8143L34.4831 24.7288L34.5867 24.6319L34.5932 24.6257H40.166Z" fill="#2B388D"/>
<path d="M29.0391 30.595L24.6851 34.6447V34.7199L29.0419 34.7609V30.595H29.0391Z" fill="#2B388D"/>
<path d="M20.3892 29.8488L23.3322 27.3071L24.746 28.605V34.6447L20.3906 30.5936L20.3892 29.8488Z" fill="#2B388D"/>
<path d="M14.8379 24.6252H20.4116L23.3325 27.307L20.3895 29.8488L14.8379 24.6252Z" fill="#2B388D"/>
<path d="M9.26514 24.6252H14.8377L20.3894 29.8488V34.7608L20.3452 34.7612L9.26514 24.6252Z" fill="#2B388D"/>
<path d="M20.3919 30.595L24.746 34.6447V34.7199L20.3892 34.7609V30.595H20.3919Z" fill="#2B388D"/>
<path d="M35.166 23.1031H31.1803L27.1948 19.5363L29.2132 17.5601L35.166 23.1031Z" fill="#EE5A28"/>
<path d="M29.1969 12.665V17.564L25.3217 14.5459L25.2315 14.4992L24.708 14.2252V14.2199L29.1969 12.665Z" fill="#EE5A28"/>
<path d="M25.3212 14.5462L24.7075 14.2249V21.9461L29.197 17.5777V17.5641L25.3212 14.5462Z" fill="#EE5A28"/>
<path d="M29.2008 17.56V12.6676L40.3027 23.085H35.1409L29.2008 17.56Z" fill="#EE5A28"/>
<path d="M14.2646 23.1031H18.2502L22.2359 19.5363L20.2174 17.5601L14.2646 23.1031Z" fill="#EE5A28"/>
<path d="M20.2339 12.665V17.564L24.1092 14.5459L24.1994 14.4992L24.7229 14.2252V14.2199L20.2339 12.665Z" fill="#EE5A28"/>
<path d="M24.1096 14.5462L24.7234 14.2249V21.9461L20.2339 17.5777V17.5641L24.1096 14.5462Z" fill="#EE5A28"/>
<path d="M20.23 17.5601V12.6676L9.1281 23.085H14.29L20.23 17.5601Z" fill="#EE5A28"/>
<path d="M7.6984 39.2411H41.288V7.75913H7.6984V39.2411ZM41.8123 39.7325H7.17383V7.26758H41.8123V39.7325Z" fill="#EE5A28"/>
<path d="M0.741626 23.4999L24.4931 45.7609L48.2447 23.4999L24.4931 1.23889L0.741626 23.4999ZM24.4931 46.456L0 23.4999L24.4931 0.543701L48.9862 23.4999L24.4931 46.456Z" fill="#2B388D"/>
</svg>
