<svg width="205" height="34" viewBox="0 0 205 34" fill="none" xmlns="http://www.w3.org/2000/svg">
<path d="M20.4862 33.2749C19.6516 32.024 18.6893 30.71 17.5993 29.3326C16.5085 27.956 15.3616 26.6267 14.1588 25.343C12.9562 24.0605 11.7126 22.8406 10.4301 21.6827C9.14654 20.5253 7.87951 19.5235 6.62884 18.6792V33.2749H0.565918V0.750641H6.62884V14.1732C7.68722 13.1411 8.79397 12.0381 9.94862 10.8649C11.1035 9.69132 12.25 8.50288 13.3889 7.29804C14.527 6.09388 15.6099 4.9278 16.6368 3.80158C17.6634 2.67536 18.5933 1.65875 19.4278 0.750641H26.6935C25.6346 1.94019 24.5116 3.1758 23.3251 4.45836C22.138 5.74202 20.9191 7.03254 19.6682 8.33038C18.4171 9.6291 17.158 10.9198 15.891 12.2024C14.6235 13.4854 13.3808 14.7059 12.1623 15.8634C13.5095 16.8645 14.8807 18.0299 16.276 19.3592C17.6713 20.6898 19.043 22.1132 20.3902 23.63C21.7375 25.1484 23.0284 26.7279 24.2634 28.3707C25.498 30.0129 26.6288 31.6484 27.6558 33.2749H20.4862Z" fill="#EE5A28"/>
<path d="M37.9523 0.750546H31.8894V33.2748H37.9523V0.750546Z" fill="#EE5A28"/>
<path d="M54.0227 28.8632C56.2039 28.8632 57.7915 28.5041 58.7861 27.7842C59.7803 27.0643 60.2779 26.0475 60.2779 24.7332C60.2779 23.9513 60.1094 23.2782 59.7725 22.7151C59.4361 22.152 58.9548 21.6438 58.3293 21.19C57.7034 20.7368 56.9413 20.3145 56.0437 19.9228C55.1451 19.5319 54.1192 19.1484 52.9643 18.7729C51.8096 18.3665 50.6943 17.9208 49.62 17.4354C48.545 16.9507 47.5995 16.3488 46.7811 15.6282C45.9633 14.909 45.3056 14.0488 44.8084 13.047C44.3108 12.0465 44.0624 10.8417 44.0624 9.43337C44.0624 6.49315 45.1047 4.18535 47.1899 2.51108C49.2751 0.837469 52.1136 0 55.7067 0C57.7915 0 59.6443 0.227414 61.2643 0.680692C62.8837 1.13441 64.1589 1.62733 65.0894 2.159L63.2129 6.94621C62.1222 6.3521 60.9274 5.89838 59.6286 5.58482C58.3293 5.2726 56.9892 5.11582 55.6109 5.11582C53.9748 5.11582 52.6994 5.44443 51.7856 6.10121C50.8714 6.75865 50.4139 7.68137 50.4139 8.87026C50.4139 9.59015 50.566 10.2077 50.8714 10.7241C51.1758 11.2405 51.6087 11.7024 52.1706 12.1083C52.7311 12.5155 53.3888 12.8909 54.1432 13.2348C54.8963 13.5798 55.7224 13.9084 56.6212 14.2208C58.1927 14.7839 59.5961 15.3552 60.8314 15.9336C62.0659 16.5133 63.1084 17.2009 63.9589 17.9987C64.8084 18.7963 65.4584 19.735 65.9074 20.8145C66.3565 21.894 66.5812 23.2005 66.5812 24.7332C66.5812 27.6748 65.5147 29.9509 63.3813 31.5621C61.2482 33.1739 58.1284 33.9793 54.0227 33.9793C52.6431 33.9793 51.384 33.8925 50.2452 33.7206C49.1067 33.5488 48.096 33.3378 47.2144 33.0873C46.3313 32.8371 45.5699 32.5791 44.929 32.313C44.2867 32.0475 43.7741 31.8048 43.3893 31.5856L45.1694 26.7514C46.035 27.2211 47.206 27.6901 48.6817 28.1597C50.1567 28.6287 51.9372 28.8632 54.0227 28.8632Z" fill="#EE5A28"/>
<path d="M80.005 28.8632C82.1863 28.8632 83.7741 28.5041 84.7687 27.7842C85.7628 27.0643 86.2605 26.0475 86.2605 24.7332C86.2605 23.9513 86.092 23.2782 85.7549 22.7151C85.4187 22.152 84.9371 21.6438 84.3117 21.19C83.6858 20.7368 82.9237 20.3145 82.0262 19.9228C81.1275 19.5319 80.1015 19.1484 78.9469 18.7729C77.792 18.3665 76.6769 17.9208 75.6024 17.4354C74.5274 16.9507 73.5818 16.3488 72.7634 15.6282C71.9457 14.909 71.288 14.0488 70.7908 13.047C70.2932 12.0465 70.045 10.8417 70.045 9.43337C70.045 6.49315 71.0871 4.18535 73.1723 2.51108C75.2577 0.837469 78.096 0 81.6893 0C83.7741 0 85.6266 0.227414 87.2467 0.680692C88.866 1.13441 90.1415 1.62733 91.072 2.159L89.1952 6.94621C88.1046 6.3521 86.9098 5.89838 85.611 5.58482C84.3117 5.2726 82.9718 5.11582 81.5933 5.11582C79.9571 5.11582 78.6817 5.44443 77.7679 6.10121C76.8537 6.75865 76.3963 7.68137 76.3963 8.87026C76.3963 9.59015 76.5486 10.2077 76.8537 10.7241C77.1582 11.2405 77.5913 11.7024 78.153 12.1083C78.7137 12.5155 79.3712 12.8909 80.1256 13.2348C80.8786 13.5798 81.7048 13.9084 82.6036 14.2208C84.175 14.7839 85.5787 15.3552 86.8137 15.9336C88.0483 16.5133 89.091 17.2009 89.9412 17.9987C90.7907 18.7963 91.4407 19.735 91.8898 20.8145C92.3388 21.894 92.5636 23.2005 92.5636 24.7332C92.5636 27.6748 91.497 29.9509 89.3639 31.5621C87.2306 33.1739 84.111 33.9793 80.005 33.9793C78.6254 33.9793 77.3663 33.8925 76.2278 33.7206C75.0893 33.5488 74.0783 33.3378 73.197 33.0873C72.3139 32.8371 71.5525 32.5791 70.9113 32.313C70.2693 32.0475 69.7565 31.8048 69.3717 31.5856L71.1518 26.7514C72.0176 27.2211 73.1886 27.6901 74.6641 28.1597C76.139 28.6287 77.9198 28.8632 80.005 28.8632Z" fill="#EE5A28"/>
<path d="M119.412 0.750698V3.51975H108.731V33.2749H105.458V3.51975H94.7769V0.750698H119.412Z" fill="#2B388D"/>
<path d="M124.609 33.2749V0.750641H143.855V3.51969H127.881V14.8306H142.123V17.5529H127.881V30.5058H145.106V33.2749H124.609Z" fill="#2B388D"/>
<path d="M164.353 33.9791C162.203 33.9791 160.207 33.6038 158.362 32.8529C156.517 32.1018 154.914 31.0072 153.551 29.5672C152.187 28.1288 151.112 26.3527 150.327 24.2408C149.54 22.1286 149.148 19.7114 149.148 16.9897C149.148 14.2674 149.573 11.8504 150.423 9.73881C151.272 7.62632 152.403 5.85151 153.815 4.41174C155.227 2.97307 156.862 1.88516 158.723 1.15022C160.583 0.415049 162.524 0.0472451 164.545 0.0472451C165.796 0.0472451 166.934 0.125633 167.962 0.281745C168.988 0.438522 169.886 0.633828 170.656 0.868328C171.426 1.10283 172.083 1.33799 172.629 1.57249C173.174 1.80699 173.591 2.01802 173.88 2.2058L172.822 4.97485C172.02 4.50585 171 4.04438 169.766 3.59066C168.53 3.13738 166.999 2.90996 165.171 2.90996C163.085 2.90996 161.265 3.25429 159.71 3.94252C158.153 4.63096 156.847 5.60129 155.788 6.85218C154.73 8.10417 153.936 9.59023 153.406 11.3106C152.877 13.0318 152.613 14.9406 152.613 17.0367C152.613 19.195 152.877 21.1432 153.406 22.8795C153.936 24.6164 154.713 26.0943 155.74 27.3146C156.766 28.5351 158.026 29.4738 159.517 30.1306C161.009 30.7878 162.717 31.116 164.642 31.116C166.759 31.116 168.53 30.9211 169.959 30.5294C171.386 30.1388 172.468 29.7397 173.207 29.3328L174.12 32.0546C173.895 32.2119 173.511 32.3914 172.966 32.5943C172.42 32.7984 171.73 33.0095 170.896 33.2282C170.062 33.4464 169.1 33.627 168.009 33.7679C166.919 33.9083 165.7 33.9791 164.353 33.9791Z" fill="#2B388D"/>
<path d="M201.161 0.750698H204.434V33.2749H201.161V17.6464H183.07V33.2749H179.798V0.750698H183.07V14.8774H201.161V0.750698Z" fill="#2B388D"/>
</svg>
