<svg width="18" height="19" viewBox="0 0 18 19" fill="none" xmlns="http://www.w3.org/2000/svg">
<g clip-path="url(#clip0_3071_244)">
<path d="M16.5001 13.1796V15.4296C16.5009 15.6385 16.4581 15.8453 16.3745 16.0366C16.2908 16.228 16.168 16.3998 16.0141 16.541C15.8602 16.6822 15.6785 16.7897 15.4806 16.8567C15.2828 16.9236 15.0731 16.9484 14.8651 16.9296C12.5572 16.6789 10.3403 15.8902 8.39257 14.6271C6.58044 13.4756 5.04407 11.9393 3.89257 10.1271C2.62506 8.17054 1.83625 5.94288 1.59007 3.62464C1.57133 3.41724 1.59598 3.20821 1.66245 3.01085C1.72892 2.8135 1.83575 2.63215 1.97615 2.47835C2.11654 2.32455 2.28743 2.20167 2.47792 2.11753C2.6684 2.03339 2.87433 1.98983 3.08257 1.98964H5.33257C5.69655 1.98605 6.04942 2.11494 6.32539 2.35229C6.60137 2.58963 6.78163 2.91922 6.83257 3.27964C6.92754 3.99969 7.10366 4.70668 7.35757 5.38714C7.45848 5.65558 7.48032 5.94732 7.4205 6.2278C7.36069 6.50827 7.22172 6.76572 7.02007 6.96964L6.06757 7.92214C7.13524 9.79979 8.68991 11.3545 10.5676 12.4221L11.5201 11.4696C11.724 11.268 11.9814 11.129 12.2619 11.0692C12.5424 11.0094 12.8341 11.0312 13.1026 11.1321C13.783 11.386 14.49 11.5622 15.2101 11.6571C15.5744 11.7085 15.9071 11.892 16.145 12.1728C16.3828 12.4535 16.5092 12.8118 16.5001 13.1796Z" stroke="#D0DBFF" stroke-width="2" stroke-linecap="round" stroke-linejoin="round"/>
</g>
<defs>
<clipPath id="clip0_3071_244">
<rect width="18" height="18" fill="white" transform="translate(0 0.489639)"/>
</clipPath>
</defs>
</svg>
