<svg width="17" height="17" viewBox="0 0 17 17" fill="none" xmlns="http://www.w3.org/2000/svg">
<path d="M15.9161 12.1963V14.4463C15.9169 14.6551 15.8741 14.8619 15.7905 15.0533C15.7068 15.2447 15.5841 15.4165 15.4301 15.5577C15.2762 15.6989 15.0945 15.8064 14.8966 15.8733C14.6988 15.9402 14.4891 15.9651 14.2811 15.9463C11.9732 15.6955 9.75634 14.9069 7.80859 13.6438C5.99646 12.4923 4.46009 10.9559 3.30859 9.14377C2.04107 7.18718 1.25227 4.95952 1.00609 2.64127C0.987345 2.43387 1.01199 2.22484 1.07846 2.02749C1.14493 1.83014 1.25177 1.64879 1.39216 1.49499C1.53256 1.34119 1.70344 1.2183 1.89393 1.13416C2.08442 1.05002 2.29034 1.00647 2.49859 1.00627H4.74859C5.11257 1.00269 5.46543 1.13158 5.74141 1.36892C6.01739 1.60626 6.19765 1.93586 6.24859 2.29627C6.34355 3.01632 6.51968 3.72332 6.77359 4.40377C6.8745 4.67221 6.89633 4.96396 6.83652 5.24443C6.7767 5.52491 6.63774 5.78235 6.43609 5.98627L5.48359 6.93877C6.55125 8.81643 8.10593 10.3711 9.98359 11.4388L10.9361 10.4863C11.14 10.2846 11.3975 10.1457 11.6779 10.0858C11.9584 10.026 12.2501 10.0479 12.5186 10.1488C13.199 10.4027 13.906 10.5788 14.6261 10.6738C14.9904 10.7252 15.3231 10.9087 15.561 11.1894C15.7988 11.4701 15.9252 11.8285 15.9161 12.1963Z" stroke="#D0DBFF" stroke-width="2" stroke-linecap="round" stroke-linejoin="round"/>
</svg>
