<svg width="88" height="66" viewBox="0 0 88 66" fill="none" xmlns="http://www.w3.org/2000/svg">
<path d="M6.09631 34.176V7.584L0.576311 8.88V4.176L8.68831 0.575998H12.4803V34.176H6.09631Z" fill="#3AA9E9"/>
<path d="M31.0432 34.752C28.5792 34.752 26.4512 34.32 24.6592 33.456C22.8992 32.592 21.5072 31.408 20.4832 29.904C19.4912 28.368 18.9152 26.64 18.7552 24.72H24.7552C25.0432 26.096 25.7472 27.248 26.8672 28.176C27.9872 29.072 29.3792 29.52 31.0432 29.52C32.8352 29.52 34.2912 28.864 35.4112 27.552C36.5632 26.24 37.1392 24.608 37.1392 22.656C37.1392 20.64 36.5632 19.04 35.4112 17.856C34.2912 16.672 32.8672 16.08 31.1392 16.08C29.6992 16.08 28.4512 16.432 27.3952 17.136C26.3392 17.84 25.5872 18.72 25.1392 19.776H19.2352L22.1152 0.575998H40.7392V5.952H26.7232L25.1872 13.728C25.8912 12.96 26.8512 12.336 28.0672 11.856C29.2832 11.344 30.6432 11.088 32.1472 11.088C34.5472 11.088 36.5472 11.632 38.1472 12.72C39.7472 13.776 40.9632 15.184 41.7952 16.944C42.6272 18.672 43.0432 20.56 43.0432 22.608C43.0432 24.944 42.5312 27.024 41.5072 28.848C40.5152 30.672 39.1072 32.112 37.2832 33.168C35.4912 34.224 33.4112 34.752 31.0432 34.752Z" fill="#3AA9E9"/>
<path d="M55.6728 17.088C54.1368 17.088 52.7448 16.752 51.4968 16.08C50.2488 15.376 49.2568 14.384 48.5208 13.104C47.7848 11.824 47.4168 10.304 47.4168 8.544C47.4168 6.784 47.7848 5.264 48.5208 3.984C49.2568 2.704 50.2488 1.728 51.4968 1.056C52.7448 0.351999 54.1528 0 55.7208 0C57.2568 0 58.6328 0.351999 59.8488 1.056C61.0968 1.728 62.0888 2.704 62.8248 3.984C63.5608 5.264 63.9288 6.784 63.9288 8.544C63.9288 10.304 63.5608 11.824 62.8248 13.104C62.0888 14.384 61.0968 15.376 59.8488 16.08C58.6008 16.752 57.2088 17.088 55.6728 17.088ZM53.8488 34.176L72.8088 0.575998H78.8088L59.8488 34.176H53.8488ZM55.6728 12.816C56.6008 12.816 57.4008 12.464 58.0728 11.76C58.7448 11.024 59.0808 9.952 59.0808 8.544C59.0808 7.136 58.7448 6.064 58.0728 5.328C57.4328 4.592 56.6328 4.224 55.6728 4.224C54.7128 4.224 53.8968 4.592 53.2248 5.328C52.5848 6.064 52.2648 7.136 52.2648 8.544C52.2648 9.952 52.5848 11.024 53.2248 11.76C53.8968 12.464 54.7128 12.816 55.6728 12.816ZM77.1768 34.752C75.6408 34.752 74.2488 34.416 73.0008 33.744C71.7528 33.04 70.7608 32.048 70.0248 30.768C69.2888 29.488 68.9208 27.968 68.9208 26.208C68.9208 24.448 69.2888 22.944 70.0248 21.696C70.7608 20.416 71.7528 19.44 73.0008 18.768C74.2488 18.064 75.6568 17.712 77.2248 17.712C78.7608 17.712 80.1368 18.064 81.3528 18.768C82.6008 19.44 83.5928 20.416 84.3288 21.696C85.0648 22.944 85.4328 24.448 85.4328 26.208C85.4328 27.968 85.0648 29.488 84.3288 30.768C83.5928 32.048 82.6008 33.04 81.3528 33.744C80.1368 34.416 78.7448 34.752 77.1768 34.752ZM77.1768 30.48C78.1368 30.48 78.9368 30.128 79.5768 29.424C80.2488 28.688 80.5848 27.616 80.5848 26.208C80.5848 24.8 80.2488 23.728 79.5768 22.992C78.9368 22.256 78.1368 21.888 77.1768 21.888C76.2168 21.888 75.4008 22.256 74.7288 22.992C74.0888 23.728 73.7688 24.8 73.7688 26.208C73.7688 27.616 74.0888 28.688 74.7288 29.424C75.4008 30.128 76.2168 30.48 77.1768 30.48Z" fill="#D0DBFF"/>
<path d="M5.264 65.368C4.208 65.368 3.28533 65.128 2.496 64.648C1.70667 64.168 1.09333 63.496 0.656 62.632C0.218667 61.768 0 60.76 0 59.608C0 58.4667 0.224 57.4587 0.672 56.584C1.12 55.7093 1.75467 55.0267 2.576 54.536C3.408 54.0347 4.38933 53.784 5.52 53.784C6.8 53.784 7.86667 54.0933 8.72 54.712C9.57333 55.3307 10.128 56.184 10.384 57.272H8.464C8.29333 56.6747 7.95733 56.2053 7.456 55.864C6.95467 55.5227 6.30933 55.352 5.52 55.352C4.34667 55.352 3.424 55.7307 2.752 56.488C2.08 57.2453 1.744 58.2907 1.744 59.624C1.744 60.9573 2.07467 61.9973 2.736 62.744C3.39733 63.4907 4.27733 63.864 5.376 63.864C6.48533 63.864 7.31733 63.5493 7.872 62.92C8.43733 62.2907 8.768 61.4533 8.864 60.408H5.824V59.096H10.576V65.176H9.024L8.88 63.528C8.50667 64.1147 8.03733 64.568 7.472 64.888C6.90667 65.208 6.17067 65.368 5.264 65.368Z" fill="white"/>
<path d="M12.0904 65.176V57.24H13.6104L13.7544 58.744C14.0317 58.2213 14.4157 57.8107 14.9064 57.512C15.4077 57.2027 16.0104 57.048 16.7144 57.048V58.824H16.2504C15.781 58.824 15.3597 58.904 14.9864 59.064C14.6237 59.2133 14.3304 59.4747 14.1064 59.848C13.893 60.2107 13.7864 60.7173 13.7864 61.368V65.176H12.0904Z" fill="white"/>
<path d="M21.1818 65.368C20.4244 65.368 19.7418 65.1973 19.1338 64.856C18.5364 64.504 18.0618 64.0187 17.7098 63.4C17.3578 62.7707 17.1818 62.04 17.1818 61.208C17.1818 60.376 17.3578 59.6507 17.7098 59.032C18.0724 58.4027 18.5578 57.9173 19.1658 57.576C19.7738 57.224 20.4511 57.048 21.1978 57.048C21.9551 57.048 22.6324 57.224 23.2298 57.576C23.8378 57.9173 24.3178 58.4027 24.6698 59.032C25.0324 59.6507 25.2138 60.376 25.2138 61.208C25.2138 62.04 25.0324 62.7707 24.6698 63.4C24.3178 64.0187 23.8378 64.504 23.2298 64.856C22.6218 65.1973 21.9391 65.368 21.1818 65.368ZM21.1818 63.912C21.5871 63.912 21.9604 63.8107 22.3018 63.608C22.6537 63.4053 22.9364 63.1067 23.1498 62.712C23.3631 62.3067 23.4698 61.8053 23.4698 61.208C23.4698 60.6107 23.3631 60.1147 23.1498 59.72C22.9471 59.3147 22.6698 59.0107 22.3178 58.808C21.9764 58.6053 21.6031 58.504 21.1978 58.504C20.7924 58.504 20.4137 58.6053 20.0618 58.808C19.7204 59.0107 19.4431 59.3147 19.2298 59.72C19.0164 60.1147 18.9098 60.6107 18.9098 61.208C18.9098 61.8053 19.0164 62.3067 19.2298 62.712C19.4431 63.1067 19.7204 63.4053 20.0618 63.608C20.4031 63.8107 20.7764 63.912 21.1818 63.912Z" fill="white"/>
<path d="M27.855 65.176L25.519 57.24H27.215L28.751 63.224L30.479 57.24H32.367L34.095 63.224L35.631 57.24H37.327L34.991 65.176H33.247L31.423 58.936L29.599 65.176H27.855Z" fill="white"/>
<path d="M41.5721 65.176C40.7935 65.176 40.1748 64.9893 39.7161 64.616C39.2575 64.232 39.0281 63.5547 39.0281 62.584V58.664H37.6681V57.24H39.0281L39.2361 55.224H40.7241V57.24H42.9641V58.664H40.7241V62.584C40.7241 63.0213 40.8148 63.3253 40.9961 63.496C41.1881 63.656 41.5135 63.736 41.9721 63.736H42.8841V65.176H41.5721Z" fill="white"/>
<path d="M44.2329 65.176V53.656H45.9289V58.52C46.1955 58.0613 46.5635 57.704 47.0329 57.448C47.5129 57.1813 48.0409 57.048 48.6169 57.048C49.5662 57.048 50.3129 57.3467 50.8569 57.944C51.4009 58.5413 51.6729 59.432 51.6729 60.616V65.176H49.9929V60.792C49.9929 59.256 49.3795 58.488 48.1529 58.488C47.5129 58.488 46.9795 58.712 46.5529 59.16C46.1369 59.608 45.9289 60.248 45.9289 61.08V65.176H44.2329Z" fill="white"/>
<path d="M56.8056 65.176V53.976H60.6616C61.547 53.976 62.2723 54.1253 62.8376 54.424C63.4136 54.7227 63.8403 55.128 64.1176 55.64C64.395 56.1413 64.5336 56.7013 64.5336 57.32C64.5336 58.0133 64.347 58.6427 63.9736 59.208C63.611 59.7733 63.0403 60.1787 62.2616 60.424L64.6456 65.176H62.6776L60.5016 60.664H58.5016V65.176H56.8056ZM58.5016 59.384H60.5656C61.3336 59.384 61.8936 59.1973 62.2456 58.824C62.6083 58.4507 62.7896 57.9653 62.7896 57.368C62.7896 56.7707 62.6136 56.296 62.2616 55.944C61.9096 55.5813 61.339 55.4 60.5496 55.4H58.5016V59.384Z" fill="white"/>
<path d="M68.434 65.368C67.762 65.368 67.2073 65.256 66.77 65.032C66.3327 64.808 66.0073 64.5147 65.794 64.152C65.5807 63.7787 65.474 63.3733 65.474 62.936C65.474 62.168 65.7727 61.56 66.37 61.112C66.9673 60.664 67.8207 60.44 68.93 60.44H71.01V60.296C71.01 59.6773 70.8393 59.2133 70.498 58.904C70.1673 58.5947 69.7353 58.44 69.202 58.44C68.7327 58.44 68.322 58.5573 67.97 58.792C67.6287 59.016 67.4207 59.352 67.346 59.8H65.65C65.7033 59.224 65.8953 58.7333 66.226 58.328C66.5673 57.912 66.994 57.5973 67.506 57.384C68.0287 57.16 68.5993 57.048 69.218 57.048C70.3273 57.048 71.186 57.3413 71.794 57.928C72.402 58.504 72.706 59.2933 72.706 60.296V65.176H71.234L71.09 63.816C70.866 64.2533 70.5407 64.6213 70.114 64.92C69.6873 65.2187 69.1273 65.368 68.434 65.368ZM68.77 63.992C69.2287 63.992 69.6127 63.8853 69.922 63.672C70.242 63.448 70.4873 63.1547 70.658 62.792C70.8393 62.4293 70.9513 62.0293 70.994 61.592H69.106C68.434 61.592 67.954 61.7093 67.666 61.944C67.3887 62.1787 67.25 62.472 67.25 62.824C67.25 63.1867 67.3833 63.4747 67.65 63.688C67.9273 63.8907 68.3007 63.992 68.77 63.992Z" fill="white"/>
<path d="M77.3753 65.176C76.5966 65.176 75.9779 64.9893 75.5192 64.616C75.0606 64.232 74.8313 63.5547 74.8313 62.584V58.664H73.4713V57.24H74.8313L75.0393 55.224H76.5273V57.24H78.7673V58.664H76.5273V62.584C76.5273 63.0213 76.6179 63.3253 76.7992 63.496C76.9912 63.656 77.3166 63.736 77.7753 63.736H78.6872V65.176H77.3753Z" fill="white"/>
<path d="M83.5449 65.368C82.7662 65.368 82.0729 65.1973 81.4649 64.856C80.8675 64.504 80.3982 64.0187 80.0569 63.4C79.7155 62.7813 79.5449 62.0613 79.5449 61.24C79.5449 60.408 79.7102 59.6773 80.0409 59.048C80.3822 58.4187 80.8515 57.928 81.4489 57.576C82.0569 57.224 82.7609 57.048 83.5609 57.048C84.3395 57.048 85.0169 57.224 85.5929 57.576C86.1689 57.9173 86.6169 58.376 86.9369 58.952C87.2569 59.528 87.4169 60.1627 87.4169 60.856C87.4169 60.9627 87.4115 61.08 87.4009 61.208C87.4009 61.3253 87.3955 61.4587 87.3849 61.608H81.2089C81.2622 62.376 81.5129 62.9627 81.9609 63.368C82.4195 63.7627 82.9475 63.96 83.5449 63.96C84.0249 63.96 84.4249 63.8533 84.7449 63.64C85.0755 63.416 85.3209 63.1173 85.4809 62.744H87.1769C86.9635 63.4907 86.5369 64.1147 85.8969 64.616C85.2675 65.1173 84.4835 65.368 83.5449 65.368ZM83.5449 58.44C82.9795 58.44 82.4782 58.6107 82.0409 58.952C81.6035 59.2827 81.3369 59.784 81.2409 60.456H85.7209C85.6889 59.8373 85.4702 59.3467 85.0649 58.984C84.6595 58.6213 84.1529 58.44 83.5449 58.44Z" fill="white"/>
</svg>
