<svg width="23" height="21" viewBox="0 0 23 21" fill="none" xmlns="http://www.w3.org/2000/svg">
<path d="M11.8623 5.5C11.8623 4.43913 11.4409 3.42172 10.6907 2.67157C9.94059 1.92143 8.92317 1.5 7.8623 1.5H1.8623V16.5H8.8623C9.65795 16.5 10.421 16.8161 10.9836 17.3787C11.5462 17.9413 11.8623 18.7044 11.8623 19.5M11.8623 5.5V19.5M11.8623 5.5C11.8623 4.43913 12.2837 3.42172 13.0339 2.67157C13.784 1.92143 14.8014 1.5 15.8623 1.5H21.8623V16.5H14.8623C14.0667 16.5 13.3036 16.8161 12.741 17.3787C12.1784 17.9413 11.8623 18.7044 11.8623 19.5" stroke="white" stroke-width="2" stroke-linecap="round" stroke-linejoin="round"/>
</svg>
